<?xml version="1.0" encoding="UTF-8"?>
<svg id="Livello_2" data-name="Livello 2" xmlns="http://www.w3.org/2000/svg" viewBox="0 0 486.13 76.79">
  <defs>
    <style>
      .cls-1 {
        fill: #88ad90;
      }
    </style>
  </defs>
  <g id="Livello_1-2" data-name="Livello 1">
    <g>
      <path d="M0,0h6.48v76.25H0V0Z"/>
      <path d="M63.81,48.06c0,2.7-.32,4.32-.32,4.32H24.39c.54,11.45,7.78,18.9,19.22,18.9,7.34,0,12.2-3.13,15.01-6.59l4.1,3.78c-4.64,5.72-11.66,8.32-19.55,8.32-15.66,0-25.49-10.26-25.49-25.7s9.94-25.92,24.19-25.92,21.92,9.5,21.92,22.9ZM24.6,47.52h32.51v-.43c0-10.15-6.05-16.42-15.23-16.42s-16.09,6.7-17.28,16.85Z"/>
      <path d="M104.37,40.18c0-6.05-5.4-9.5-12.74-9.5s-11.77,3.46-11.77,8.64c0,13.39,31.43,4.75,31.64,23.54.11,8.75-7.78,13.93-19.76,13.93-12.74,0-18.9-5.83-20.84-7.45l4.1-4.32c1.4,1.3,7.34,6.26,16.74,6.26,8.53,0,13.18-3.35,13.18-8.42,0-12.64-31.75-5.29-31.75-23.65,0-8.1,7.45-14.04,18.68-14.04s18.58,5.51,18.58,13.82c0,1.73-.32,3.24-.32,3.24l-6.05.54c.11-.54.32-1.51.32-2.59Z"/>
      <path d="M152.22,40.18c0-6.05-5.4-9.5-12.74-9.5s-11.77,3.46-11.77,8.64c0,13.39,31.43,4.75,31.64,23.54.11,8.75-7.78,13.93-19.76,13.93-12.74,0-18.9-5.83-20.84-7.45l4.1-4.32c1.4,1.3,7.34,6.26,16.74,6.26,8.53,0,13.18-3.35,13.18-8.42,0-12.64-31.75-5.29-31.75-23.65,0-8.1,7.45-14.04,18.68-14.04s18.58,5.51,18.58,13.82c0,1.73-.32,3.24-.32,3.24l-6.05.54c.11-.54.32-1.51.32-2.59Z"/>
      <path d="M199.09,25.7l6.59-.22v50.76h-6.59V25.7Z"/>
      <path d="M248.61,40.18c0-6.05-5.4-9.5-12.74-9.5s-11.77,3.46-11.77,8.64c0,13.39,31.43,4.75,31.64,23.54.11,8.75-7.78,13.93-19.76,13.93-12.74,0-18.9-5.83-20.84-7.45l4.1-4.32c1.4,1.3,7.34,6.26,16.74,6.26,8.53,0,13.18-3.35,13.18-8.42,0-12.64-31.75-5.29-31.75-23.65,0-8.1,7.45-14.04,18.68-14.04s18.58,5.51,18.58,13.82c0,1.73-.32,3.24-.32,3.24l-6.05.54c.11-.54.32-1.51.32-2.59Z"/>
      <path d="M339.87,45.25v31h-6.59v-31c0-8.64-5.29-14.58-14.04-14.58-11.56,0-17.39,10.37-17.39,17.93v27.65h-6.59V25.7l4.64-.22c.65,4.21.97,9.61.97,12.85h.22c2.7-6.91,8.96-13.18,19.12-13.18,12.1,0,19.66,8.21,19.66,20.09Z"/>
      <path d="M396.72,48.06c0,2.7-.32,4.32-.32,4.32h-39.1c.54,11.45,7.78,18.9,19.22,18.9,7.34,0,12.2-3.13,15.01-6.59l4.1,3.78c-4.64,5.72-11.66,8.32-19.55,8.32-15.66,0-25.49-10.26-25.49-25.7s9.94-25.92,24.19-25.92,21.92,9.5,21.92,22.9ZM357.51,47.52h32.51v-.43c0-10.15-6.05-16.42-15.23-16.42s-16.09,6.7-17.28,16.85Z"/>
      <path d="M433.89,25.92l-1.62,6.48c-.76-.43-2.48-.86-4.43-.86-7.56,0-13.28,8.64-13.28,17.39v27.32h-6.59V25.7l4.64-.22c.65,4.21.97,9.61.97,12.85h.22c1.94-6.91,6.59-13.18,14.36-13.18,2.27,0,4.43.32,5.72.76Z"/>
      <path d="M486.13.22v76.03l-4.75.22c-.43-4.1-.86-9.83-.76-12.96h-.11c-2.7,7.34-9.5,13.28-19.87,13.28-14.04,0-23.76-10.37-23.76-25.92s9.72-25.81,24.08-25.81c9.18,0,15.55,4.54,18.68,10.58V.22h6.48ZM479.65,53.14v-4.54c0-7.78-5.94-17.93-18.36-17.93-10.69,0-17.71,8.1-17.71,20.2s7.13,20.3,18.14,20.3c11.99,0,17.93-10.26,17.93-18.04Z"/>
    </g>
    <polygon class="cls-1" points="199.1 21.87 205.44 19.99 210.03 12.53 207.24 5.83 202.54 6.78 195.69 14.54 199.1 21.87"/>
  </g>
</svg>
