<svg xmlns="http://www.w3.org/2000/svg" viewBox="-8 -6 616 109" role="img" aria-label="Less is nerd"><path fill="#000" d="M0 0h12v34h-12zM588 0h12v35h-12zM0 34h12v61h-12zM51 34h14v1h-14zM114 34h13v1h-13zM168 34h13v1h-13zM284 34h13v1h-13zM382 34h11v1h-11zM448 34h14v1h-14zM523 34h10v1h-10zM560 34h13v1h-13zM48 35h21v1h-21zM110 35h21v1h-21zM165 35h20v1h-20zM241 35h12v60h-12zM280 35h21v1h-21zM356 35h12v60h-12zM379 35h18v1h-18zM445 35h21v1h-21zM499 35h12v60h-12zM520 35h13v12h-13zM556 35h20v1h-20zM588 35h12v60h-12zM45 36h26v1h-26zM108 36h25v1h-25zM162 36h26v1h-26zM278 36h25v1h-25zM377 36h22v1h-22zM442 36h26v1h-26zM519 36h14v8h-14zM554 36h24v1h-24zM43 37h30v1h-30zM106 37h29v1h-29zM161 37h29v1h-29zM276 37h29v1h-29zM375 37h25v1h-25zM440 37h30v1h-30zM517 37h16v1h-16zM552 37h28v1h-28zM41 38h34v1h-34zM105 38h32v1h-32zM159 38h32v1h-32zM275 38h32v1h-32zM374 38h28v1h-28zM438 38h34v1h-34zM516 38h17v1h-17zM550 38h32v1h-32zM40 39h36v1h-36zM103 39h35v1h-35zM158 39h35v1h-35zM274 39h34v1h-34zM372 39h31v1h-31zM437 39h36v1h-36zM515 39h18v1h-18zM549 39h34v1h-34zM38 40h39v1h-39zM102 40h37v1h-37zM157 40h37v1h-37zM273 40h37v1h-37zM371 40h33v1h-33zM436 40h38v1h-38zM514 40h19v1h-19zM547 40h37v1h-37zM37 41h41v1h-41zM101 41h39v1h-39zM156 41h39v1h-39zM272 41h39v1h-39zM370 41h35v1h-35zM434 41h41v1h-41zM513 41h20v1h-20zM546 41h39v1h-39zM36 42h43v1h-43zM101 42h40v1h-40zM155 42h41v1h-41zM271 42h40v1h-40zM370 42h35v1h-35zM433 42h43v1h-43zM512 42h21v1h-21zM545 42h41v1h-41zM35 43h22v1h-22zM59 43h21v1h-21zM100 43h19v1h-19zM121 43h21v1h-21zM155 43h19v1h-19zM175 43h21v1h-21zM270 43h20v1h-20zM291 43h21v1h-21zM369 43h37v1h-37zM432 43h22v1h-22zM456 43h21v1h-21zM511 43h22v1h-22zM544 43h43v1h-43zM34 44h18v1h-18zM64 44h17v1h-17zM100 44h14v1h-14zM126 44h16v1h-16zM154 44h15v1h-15zM180 44h16v1h-16zM270 44h14v1h-14zM296 44h16v1h-16zM356 44h25v1h-25zM388 44h19v1h-19zM431 44h18v1h-18zM461 44h17v1h-17zM511 44h22v1h-22zM544 44h21v1h-21zM573 44h27v1h-27zM34 45h15v1h-15zM67 45h15v1h-15zM99 45h13v1h-13zM128 45h12v1h-12zM154 45h13v1h-13zM182 45h13v1h-13zM269 45h14v1h-14zM298 45h13v1h-13zM356 45h22v1h-22zM391 45h16v1h-16zM431 45h16v1h-16zM464 45h15v1h-15zM499 45h24v1h-24zM543 45h18v1h-18zM576 45h24v1h-24zM33 46h15v1h-15zM68 46h14v1h-14zM99 46h12v1h-12zM130 46h9v1h-9zM153 46h13v1h-13zM184 46h10v1h-10zM269 46h12v1h-12zM300 46h9v1h-9zM356 46h20v1h-20zM392 46h16v1h-16zM430 46h15v1h-15zM465 46h14v1h-14zM499 46h21v1h-21zM542 46h17v1h-17zM578 46h22v1h-22zM32 47h14v1h-14zM69 47h14v1h-14zM98 47h12v1h-12zM131 47h7v1h-7zM153 47h12v1h-12zM185 47h7v1h-7zM269 47h11v1h-11zM301 47h7v1h-7zM356 47h19v1h-19zM393 47h15v1h-15zM429 47h14v1h-14zM466 47h14v1h-14zM499 47h19v1h-19zM541 47h16v1h-16zM580 47h20v1h-20zM32 48h13v1h-13zM70 48h13v1h-13zM98 48h12v1h-12zM132 48h5v1h-5zM153 48h11v1h-11zM186 48h5v1h-5zM268 48h12v1h-12zM302 48h5v1h-5zM356 48h18v1h-18zM394 48h14v1h-14zM429 48h13v1h-13zM467 48h13v1h-13zM499 48h18v1h-18zM541 48h15v1h-15zM581 48h19v1h-19zM31 49h13v1h-13zM71 49h13v1h-13zM98 49h11v1h-11zM133 49h3v1h-3zM152 49h12v1h-12zM187 49h3v1h-3zM268 49h12v1h-12zM303 49h3v1h-3zM356 49h17v1h-17zM395 49h14v1h-14zM428 49h13v1h-13zM468 49h13v1h-13zM499 49h17v1h-17zM540 49h15v1h-15zM582 49h18v1h-18zM30 50h13v1h-13zM72 50h12v1h-12zM98 50h11v1h-11zM134 50h1v1h-1zM152 50h12v1h-12zM188 50h1v1h-1zM268 50h11v1h-11zM304 50h1v1h-1zM356 50h16v1h-16zM396 50h13v1h-13zM428 50h12v1h-12zM469 50h12v1h-12zM499 50h16v1h-16zM540 50h14v1h-14zM583 50h17v1h-17zM30 51h13v1h-13zM72 51h13v1h-13zM98 51h11v1h-11zM152 51h12v1h-12zM268 51h11v1h-11zM356 51h15v1h-15zM396 51h13v1h-13zM427 51h13v1h-13zM469 51h13v1h-13zM499 51h15v1h-15zM539 51h14v1h-14zM584 51h16v1h-16zM30 52h12v1h-12zM73 52h12v1h-12zM98 52h11v1h-11zM152 52h12v1h-12zM268 52h12v1h-12zM356 52h15v1h-15zM396 52h13v1h-13zM427 52h12v1h-12zM470 52h12v1h-12zM499 52h15v1h-15zM539 52h14v1h-14zM585 52h15v1h-15zM29 53h12v1h-12zM73 53h12v1h-12zM98 53h12v1h-12zM152 53h12v1h-12zM268 53h12v1h-12zM356 53h14v1h-14zM397 53h12v1h-12zM426 53h12v1h-12zM470 53h12v1h-12zM499 53h14v1h-14zM539 53h13v1h-13zM585 53h15v1h-15zM29 54h12v1h-12zM74 54h12v1h-12zM98 54h12v1h-12zM152 54h13v1h-13zM268 54h12v1h-12zM356 54h14v1h-14zM397 54h13v1h-13zM426 54h12v1h-12zM471 54h12v1h-12zM499 54h14v1h-14zM538 54h14v1h-14zM586 54h14v1h-14zM29 55h12v1h-12zM74 55h12v1h-12zM98 55h13v1h-13zM153 55h12v1h-12zM268 55h13v1h-13zM356 55h14v1h-14zM397 55h13v1h-13zM426 55h12v1h-12zM471 55h12v1h-12zM499 55h13v1h-13zM538 55h13v1h-13zM586 55h14v1h-14zM28 56h12v1h-12zM74 56h12v1h-12zM98 56h14v1h-14zM153 56h14v1h-14zM269 56h14v1h-14zM356 56h13v1h-13zM397 56h13v1h-13zM425 56h12v1h-12zM471 56h12v1h-12zM499 56h13v1h-13zM538 56h13v1h-13zM587 56h13v1h-13zM28 57h12v1h-12zM74 57h12v1h-12zM99 57h16v1h-16zM153 57h16v1h-16zM269 57h16v1h-16zM356 57h13v1h-13zM397 57h13v1h-13zM425 57h12v1h-12zM471 57h12v1h-12zM499 57h13v1h-13zM537 57h13v1h-13zM587 57h13v1h-13zM28 58h12v1h-12zM74 58h12v1h-12zM99 58h18v1h-18zM153 58h19v1h-19zM269 58h19v1h-19zM356 58h13v1h-13zM397 58h13v1h-13zM425 58h12v1h-12zM471 58h13v1h-13zM499 58h12v1h-12zM537 58h13v1h-13zM100 59h21v1h-21zM154 59h21v1h-21zM270 59h21v1h-21zM27 59h13v10h-13zM75 59h12v10h-12zM356 59h13v10h-13zM398 59h12v10h-12zM425 59h12v10h-12zM472 59h12v10h-12zM499 59h12v10h-12zM537 59h13v10h-13zM588 58h12v37h-12zM27 60h60v9h-60zM100 60h25v1h-25zM155 60h24v1h-24zM270 60h25v1h-25zM425 60h59v9h-59zM101 61h27v1h-27zM155 61h28v1h-28zM271 61h28v1h-28zM102 62h29v1h-29zM156 62h30v1h-30zM272 62h29v1h-29zM103 63h30v1h-30zM157 63h31v1h-31zM273 63h31v1h-31zM104 64h31v1h-31zM159 64h31v1h-31zM274 64h31v1h-31zM106 65h31v1h-31zM160 65h31v1h-31zM276 65h31v1h-31zM108 66h30v1h-30zM162 66h30v1h-30zM278 66h30v1h-30zM110 67h29v1h-29zM165 67h28v1h-28zM281 67h28v1h-28zM114 68h26v1h-26zM168 68h26v1h-26zM284 68h26v1h-26zM118 69h22v1h-22zM172 69h23v1h-23zM288 69h23v1h-23zM121 70h20v1h-20zM176 70h19v1h-19zM291 70h20v1h-20zM124 71h18v1h-18zM179 71h17v1h-17zM294 71h18v1h-18zM127 72h15v1h-15zM181 72h15v1h-15zM297 72h15v1h-15zM128 73h14v1h-14zM183 73h14v1h-14zM298 73h14v1h-14zM129 74h13v1h-13zM184 74h13v1h-13zM299 74h14v1h-14zM130 75h13v1h-13zM184 75h13v1h-13zM300 75h13v1h-13zM130 76h13v1h-13zM185 76h12v1h-12zM301 76h12v1h-12zM131 77h12v1h-12zM185 77h12v1h-12zM301 77h12v1h-12zM30 78h13v1h-13zM75 78h2v1h-2zM131 78h12v1h-12zM185 78h12v1h-12zM301 78h12v1h-12zM427 78h13v1h-13zM472 78h2v1h-2zM539 78h14v1h-14zM585 78h15v1h-15zM30 79h13v1h-13zM75 79h3v1h-3zM102 79h2v1h-2zM131 79h12v1h-12zM157 79h1v1h-1zM185 79h12v1h-12zM273 79h1v1h-1zM301 79h12v1h-12zM427 79h13v1h-13zM472 79h3v1h-3zM539 79h15v1h-15zM584 79h16v1h-16zM30 80h14v1h-14zM74 80h5v1h-5zM101 80h4v1h-4zM131 80h12v1h-12zM156 80h3v1h-3zM185 80h12v1h-12zM272 80h3v1h-3zM301 80h12v1h-12zM428 80h13v1h-13zM471 80h5v1h-5zM540 80h14v1h-14zM583 80h17v1h-17zM31 81h14v1h-14zM73 81h8v1h-8zM100 81h6v1h-6zM130 81h12v1h-12zM155 81h5v1h-5zM185 81h12v1h-12zM270 81h6v1h-6zM301 81h12v1h-12zM428 81h14v1h-14zM470 81h8v1h-8zM540 81h15v1h-15zM582 81h18v1h-18zM32 82h14v1h-14zM71 82h11v1h-11zM99 82h8v1h-8zM130 82h12v1h-12zM153 82h8v1h-8zM184 82h13v1h-13zM269 82h8v1h-8zM300 82h12v1h-12zM429 82h14v1h-14zM468 82h11v1h-11zM541 82h15v1h-15zM581 82h19v1h-19zM32 83h16v1h-16zM70 83h13v1h-13zM98 83h10v1h-10zM129 83h13v1h-13zM152 83h10v1h-10zM184 83h12v1h-12zM268 83h10v1h-10zM299 83h13v1h-13zM429 83h16v1h-16zM467 83h13v1h-13zM541 83h17v1h-17zM580 83h20v1h-20zM33 84h16v1h-16zM68 84h16v1h-16zM97 84h12v1h-12zM128 84h14v1h-14zM151 84h13v1h-13zM183 84h13v1h-13zM267 84h13v1h-13zM298 84h14v1h-14zM430 84h16v1h-16zM465 84h16v1h-16zM542 84h17v1h-17zM578 84h22v1h-22zM34 85h18v1h-18zM66 85h18v1h-18zM95 85h16v1h-16zM127 85h14v1h-14zM150 85h16v1h-16zM181 85h15v1h-15zM266 85h15v1h-15zM297 85h14v1h-14zM431 85h18v1h-18zM463 85h18v1h-18zM543 85h18v1h-18zM576 85h24v1h-24zM34 86h21v1h-21zM63 86h20v1h-20zM95 86h19v1h-19zM124 86h17v1h-17zM149 86h19v1h-19zM179 86h16v1h-16zM265 86h19v1h-19zM295 86h16v1h-16zM431 86h21v1h-21zM460 86h20v1h-20zM544 86h21v1h-21zM572 86h28v1h-28zM35 87h47v1h-47zM96 87h44v1h-44zM150 87h45v1h-45zM266 87h44v1h-44zM432 87h47v1h-47zM544 87h43v1h-43zM36 88h45v1h-45zM97 88h43v1h-43zM151 88h43v1h-43zM267 88h43v1h-43zM433 88h45v1h-45zM545 88h41v1h-41zM37 89h43v1h-43zM98 89h41v1h-41zM152 89h41v1h-41zM268 89h41v1h-41zM434 89h43v1h-43zM546 89h40v1h-40zM38 90h41v1h-41zM99 90h39v1h-39zM153 90h39v1h-39zM269 90h39v1h-39zM436 90h40v1h-40zM548 90h37v1h-37zM40 91h38v1h-38zM100 91h37v1h-37zM155 91h36v1h-36zM270 91h37v1h-37zM437 91h38v1h-38zM549 91h34v1h-34zM41 92h35v1h-35zM102 92h34v1h-34zM156 92h34v1h-34zM272 92h34v1h-34zM438 92h35v1h-35zM550 92h32v1h-32zM43 93h31v1h-31zM103 93h31v1h-31zM158 93h31v1h-31zM274 93h30v1h-30zM440 93h31v1h-31zM552 93h28v1h-28zM45 94h27v1h-27zM106 94h26v1h-26zM160 94h27v1h-27zM276 94h26v1h-26zM442 94h27v1h-27zM554 94h24v1h-24zM48 95h21v1h-21zM109 95h21v1h-21zM163 95h21v1h-21zM279 95h21v1h-21zM445 95h21v1h-21zM556 95h20v1h-20zM52 96h14v1h-14zM112 96h14v1h-14zM167 96h13v1h-13zM283 96h13v1h-13zM449 96h14v1h-14zM560 96h13v1h-13z"/><path fill="#88ad90" d="M252 0h3v1h-3zM248 1h8v1h-8zM246 2h10v1h-10zM245 3h12v1h-12zM244 4h13v1h-13zM243 5h14v1h-14zM242 6h16v2h-16zM241 8h18v1h-18zM240 9h19v1h-19zM239 10h21v1h-21zM238 11h22v1h-22zM237 12h23v1h-23zM236 13h23v1h-23zM235 14h24v1h-24zM235 15h23v1h-23zM235 16h22v1h-22zM236 17h21v1h-21zM236 18h20v1h-20zM236 19h19v1h-19zM237 20h18v1h-18zM237 21h17v1h-17zM238 22h16v1h-16zM238 23h15v1h-15zM239 24h13v1h-13zM239 25h12v1h-12zM240 26h8v1h-8zM240 27h4v1h-4z"/></svg>
